# xmcd CD database file
#
# Track frame offsets:
#	150
#	1059
#	15911
#	28816
#	44214
#	56309
#	74403
#	86604
#	101791
#	120376
#	131525
#	180471
#
# Disc length: 4440 seconds
#
# Revision: 3
# Processed by: cddbd v1.4PL0 Copyright (c) Steve Scherf et al.
# Submitted via: CDex 1.50beta10
#
DISCID=9411560c
DTITLE=Handsome Hank and The Lonesome Boys - Greatest Hits
DYEAR=2003
DGENRE=Country
TTITLE0=Trailer
TTITLE1=She's The One
TTITLE2=Paradise City
TTITLE3=Manic Depression
TTITLE4=Daddy Cool
TTITLE5=I'm A Believer
TTITLE6=Blitzkrieg Bop
TTITLE7=Video Killed The Radio Star
TTITLE8=Black Hole Sun
TTITLE9=Da' Ya' Think I'm Sexy
TTITLE10=Mongoloid
TTITLE11=Data
EXTD=YEAR: 2003
EXTT0=
EXTT1=
EXTT2=
EXTT3=
EXTT4=
EXTT5=
EXTT6=
EXTT7=
EXTT8=
EXTT9=
EXTT10=
EXTT11=
PLAYORDER=
